<svg width="19" height="25" viewBox="0 0 19 25" fill="none" xmlns="http://www.w3.org/2000/svg">
<g clip-path="url(#clip0_8523_59385)">
<path d="M15.4391 13.0953C15.4297 11.375 16.2078 10.0766 17.7828 9.12031C16.9016 7.85938 15.5703 7.16563 13.8125 7.02969C12.1484 6.89844 10.3297 8 9.66406 8C8.96094 8 7.34844 7.07656 6.08281 7.07656C3.46719 7.11875 0.6875 9.1625 0.6875 13.3203C0.6875 14.5484 0.9125 15.8172 1.3625 17.1266C1.9625 18.8469 4.12812 23.0656 6.3875 22.9953C7.56875 22.9672 8.40312 22.1563 9.94062 22.1563C11.4312 22.1563 12.2047 22.9953 13.5219 22.9953C15.8 22.9625 17.7594 19.1281 18.3312 17.4031C15.275 15.9641 15.4391 13.1844 15.4391 13.0953ZM12.7859 5.39844C14.0656 3.87969 13.9484 2.49688 13.9109 2C12.7813 2.06563 11.4734 2.76875 10.7281 3.63594C9.90781 4.56406 9.425 5.7125 9.52813 7.00625C10.7516 7.1 11.8672 6.47188 12.7859 5.39844Z" fill="white"/>
</g>
<defs>
<clipPath id="clip0_8523_59385">
<rect width="18" height="24" fill="white" transform="translate(0.5 0.5)"/>
</clipPath>
</defs>
</svg>
