<svg width="33" height="44" viewBox="0 0 33 44" fill="none" xmlns="http://www.w3.org/2000/svg">
<path fill-rule="evenodd" clip-rule="evenodd" d="M32.9739 12.1257C32.0874 13.8702 31.7728 14.957 31.0864 15.7005C30.1713 16.6729 28.8272 17.2162 27.8834 18.16C24.4802 21.5632 22.0207 25.3096 23.3649 30.5717C24.137 33.6031 24.4802 36.7775 24.995 39.8947C25.2237 41.3246 25.9673 43.0406 23.994 43.7841C21.8491 44.5849 21.1342 42.8118 20.362 41.3246C18.4459 37.5783 16.587 33.8033 14.5565 30.1141C12.1543 25.7385 8.57948 23.4507 3.40318 24.4516C1.77307 24.7662 0.400377 24.6804 0 22.1637C1.05814 21.5918 2.20209 20.934 3.37462 20.3621C9.29449 17.5022 11.0961 14.1848 10.2668 7.72156C10.0952 6.37744 9.89501 4.97612 10.1238 3.6892C10.2954 2.71685 11.182 1.88749 12.3545 0C14.4136 4.97612 15.0999 9.52328 19.3039 11.7825C23.2791 13.8988 27.4831 12.3545 32.9739 12.1257ZM14.957 13.9274C13.4127 16.1009 11.8111 18.3602 10.2668 20.5336C12.955 22.7357 15.7577 25.0522 18.3601 27.1971C19.5899 23.9083 20.9054 20.4193 22.2209 16.9588C19.6757 15.8721 17.2162 14.8712 14.957 13.9274Z" fill="#F9FAFB"/>
</svg>
