<svg width="179" height="95" viewBox="0 0 179 95" fill="none" xmlns="http://www.w3.org/2000/svg">
<path fill-rule="evenodd" clip-rule="evenodd" d="M117.898 84.7905C119.978 87.6861 121.792 90.2156 123.706 92.8949C121.642 94.3261 119.862 94.2761 118.065 93.2777C113.022 90.4486 107.963 87.6362 102.971 84.7406C98.8769 82.3775 94.8497 79.9146 90.8225 77.435C89.1916 76.4365 89.2415 75.1717 90.9057 74.3064C96.7135 71.2444 102.555 68.199 108.562 65.0704C108.263 64.7375 108.063 64.3548 107.747 64.1884C105.517 63.0235 104.785 61.143 104.901 58.73C105.018 56.5167 105.167 54.3699 106.133 52.323C107.913 48.5288 109.012 44.385 112.007 41.2232C113.588 39.559 113.521 39.4924 115.801 40.3578C117.016 40.8071 118.231 41.3064 119.712 41.8888C119.712 40.2579 119.795 38.7436 119.695 37.2458C119.446 33.7511 119.03 30.2564 118.863 26.7617C118.78 25.0477 118.347 23.6997 116.933 22.6846C116.301 22.2186 115.568 21.7194 115.235 21.0703C114.919 20.4712 114.786 19.4395 115.119 18.9569C115.435 18.4743 116.467 18.1248 117.099 18.2413C118.098 18.4243 119.063 18.9735 119.978 19.506C129.664 25.031 139.016 31.0885 147.853 37.8949C148.335 38.261 148.735 38.7103 149.334 39.2761C147.204 41.7058 144.674 40.5242 142.195 40.208C141.762 41.789 142.478 43.0537 142.993 44.2852C144.924 48.8949 146.871 53.5046 148.901 58.081C149.234 58.8298 149.9 59.4955 150.565 59.9947C155.724 63.9554 160.767 68.0325 165.343 72.6755C167.989 75.3714 170.768 77.9509 173.264 80.7633C174.878 82.5772 176.21 84.6907 177.441 86.8041C178.556 88.7179 178.09 89.6498 175.91 90.2822C172.349 91.314 168.754 90.9811 165.21 90.2655C158.154 88.8677 151.198 87.0038 144.524 84.2913C141.03 82.8767 137.668 81.1793 134.19 79.7315C133.291 79.3487 132.043 79.0658 131.211 79.382C126.835 80.9963 122.574 82.8435 117.898 84.7905ZM113.006 63.9055C113.605 64.3548 113.971 64.6044 114.304 64.8873C120.128 69.9297 126.885 73.5742 133.674 77.0023C140.547 80.4804 147.703 83.4093 155.192 85.4562C160.367 86.8707 165.559 88.1188 170.934 88.4017C172.216 88.4683 173.547 88.7179 174.795 87.6362C174.446 86.9872 174.213 86.3215 173.797 85.789C172.133 83.7421 170.502 81.6786 168.721 79.7648C161.299 71.7602 153.261 64.438 144.192 58.3306C141.279 56.3669 138.384 54.4032 135.388 52.5893C131.644 50.326 127.816 48.1793 123.989 46.0492C123.19 45.5999 122.208 45.4667 121.193 45.1505C117.532 50.9917 116.45 57.7481 113.006 63.9055ZM128.765 77.4017C128.016 76.0371 126.951 75.5212 125.803 75.0553C124.754 74.6392 123.656 74.2398 122.724 73.6241C119.662 71.6105 116.6 69.5469 113.638 67.3835C112.673 66.6846 111.857 66.3684 110.776 66.9176C109.045 67.7663 107.281 68.5318 105.583 69.4304C102.588 71.0613 99.6258 72.7754 96.647 74.4395C95.6651 74.9887 94.6666 75.4879 93.2355 76.2534C102.155 80.7966 109.91 86.5212 118.78 90.3987C118.098 89.0174 117.216 87.8692 116.35 86.7043C115.052 84.9403 115.169 83.9418 117.066 82.8767C118.813 81.8949 120.727 81.196 122.558 80.3472C124.621 79.4153 126.652 78.4168 128.765 77.4017ZM120.927 22.7345C121.093 23.7995 121.293 24.6316 121.343 25.4803C121.692 30.5393 122.042 35.615 122.308 40.674C122.391 42.1551 122.874 42.9871 124.338 43.6029C129.431 45.7663 134.307 48.3124 138.633 51.8404C140.264 53.1551 142.178 54.1203 143.959 55.2519C143.559 53.1218 142.727 51.3911 142.095 49.5938C140.963 46.382 139.299 43.3533 139.066 39.8586C138.999 38.7103 138.85 37.5787 139.998 36.7799C140.797 36.9297 141.579 37.0628 142.344 37.2126C135.571 31.854 128.532 27.0446 120.927 22.7345ZM113.122 56.9327C113.571 55.6846 113.904 54.7194 114.304 53.6377C112.556 52.8056 111.025 52.0734 109.328 51.2746C108.829 52.5893 108.479 53.5378 108.08 54.5862C109.794 55.385 111.291 56.084 113.122 56.9327ZM112.706 44.3185C114.287 45.2504 115.568 45.9826 116.999 46.8313C117.565 45.8495 118.114 44.9342 118.747 43.8525C117.116 43.1702 115.768 42.6044 114.37 42.0219C113.754 42.8707 113.305 43.4864 112.706 44.3185ZM111.425 46.615C111.042 47.4637 110.742 48.146 110.409 48.8949C112.024 49.7436 113.521 50.5424 115.186 51.4077C115.502 50.4924 115.768 49.7269 116.034 48.9281C114.969 48.2625 114.121 47.6634 113.205 47.1642C112.756 46.9145 112.223 46.848 111.425 46.615ZM111.841 59.8616C109.977 57.9145 109.794 57.8313 107.78 57.7481C107.248 60.8934 107.397 61.1763 110.443 62.5076C110.909 61.6422 111.375 60.7436 111.841 59.8616Z" fill="#42B8BD"/>
<path fill-rule="evenodd" clip-rule="evenodd" d="M166.491 84.4417C164.011 83.6762 161.548 83.0771 159.218 82.1285C152.978 79.599 146.754 76.9697 140.597 74.2571C137.784 73.009 135.205 71.3282 133.125 68.9984C131.91 67.6338 130.945 66.2026 131.777 64.2556C132.575 62.3751 134.722 60.9273 136.802 61.0771C140.53 61.3267 144.008 62.4916 147.237 64.3055C151.83 66.8849 156.123 69.897 159.934 73.5748C161.764 75.3388 163.628 77.0695 165.376 78.9167C166.74 80.3312 167.972 81.8955 166.491 84.4417ZM164.594 81.0468C159.684 75.3055 154.209 70.4462 147.736 66.8516C145.156 65.4205 142.294 64.5052 139.498 63.5067C138.55 63.1739 137.368 63.0574 136.403 63.2904C135.571 63.4901 134.722 64.2057 134.206 64.9212C133.574 65.8032 134.323 66.6353 135.005 67.1512C137.002 68.6989 138.916 70.4961 141.162 71.5445C147.187 74.3569 153.361 76.8698 159.501 79.416C161.149 80.1149 162.896 80.5143 164.594 81.0468Z" fill="#42B8BD"/>
<path fill-rule="evenodd" clip-rule="evenodd" d="M96.8105 45.1687C93.3962 41.7974 89.7027 39.4138 85.7516 37.4812C76.7971 33.122 67.8211 28.8487 58.7591 24.7258C47.421 19.5506 35.7393 15.3847 23.5208 12.7005C17.1216 11.2832 10.7654 9.65122 4.3877 8.12659C4.17296 8.06217 3.95823 7.9548 3.74349 7.91185C1.61759 7.50385 0.307705 7.9548 0.0500205 9.20027C-0.229138 10.4887 0.651284 11.047 3.05634 11.5839C12.9772 13.7742 23.0054 15.5994 32.776 18.3695C45.7246 22.063 58.072 27.4744 70.1617 33.4226C72.9962 34.8184 75.9381 36.0639 78.7082 37.5885C83.3465 40.1654 87.8775 42.914 92.4514 45.6197C93.8687 46.5001 95.2 47.2087 96.8105 45.1687Z" fill="#42B8BD"/>
<path fill-rule="evenodd" clip-rule="evenodd" d="M106.388 45.6623C105.207 43.7726 104.348 42.0547 103.167 40.5945C96.9822 32.8639 89.7026 26.2715 82.015 20.0441C73.7047 13.3014 64.6857 7.7397 55.2803 2.71485C54.0777 2.07064 52.9826 1.25464 51.7801 0.610429C50.7708 0.0521128 49.4609 -0.506198 48.7952 0.803698C48.108 2.13507 49.0314 3.12286 50.2554 3.7456C51.3721 4.30392 52.4242 4.9696 53.5624 5.48496C69.0234 12.7646 82.2942 23.0505 94.1047 35.269C97.0037 38.2753 99.4517 41.7111 102.114 44.9536C103.532 46.6286 103.532 46.6286 106.388 45.6623Z" fill="#42B8BD"/>
<path fill-rule="evenodd" clip-rule="evenodd" d="M43.9852 48.8203C37.8867 49.078 31.7881 49.3142 25.6896 49.5719C25.0239 49.5934 24.2079 49.5504 23.714 49.8725C23.1342 50.2376 22.4685 51.0536 22.5115 51.6119C22.5544 52.1487 23.3704 52.9218 23.9932 53.0721C24.938 53.3083 26.0332 53.2224 27.021 53.0506C34.4723 51.8911 41.9237 52.4923 49.3966 52.9647C49.9549 53.0077 50.5347 53.1151 51.093 53.0721C59.0168 52.5353 66.597 54.5323 74.2202 56.1858C75.4012 56.4435 76.6467 56.5079 77.8707 56.4435C78.2572 56.422 78.8156 55.7134 78.88 55.2839C78.9444 54.8759 78.5364 54.1887 78.1284 53.974C77.3553 53.5445 76.4534 53.3083 75.5945 53.0721C65.2656 50.1732 54.6791 49.2713 43.9852 48.8203Z" fill="#42B8BD"/>
</svg>
