<svg width="33" height="32" viewBox="0 0 33 32" fill="none" xmlns="http://www.w3.org/2000/svg">
<circle cx="16.7377" cy="15.7494" r="15.3831" fill="#00141B" stroke="#42B8BD" stroke-width="0.73253"/>
<path fill-rule="evenodd" clip-rule="evenodd" d="M10.2497 10.3031C10.1486 10.9387 10.0421 11.4962 10.3402 12.085C10.5 12.4028 10.4361 12.8404 10.4361 13.2208C10.4254 15.9405 10.4041 18.655 10.3935 21.3747C10.3935 21.7811 10.3456 22.2031 10.7129 22.5209C10.9153 22.6981 11.091 22.7502 11.3838 22.6824C13.21 22.2656 15.0469 21.8801 16.8784 21.4945C18.3585 21.1819 19.8387 20.8901 21.3188 20.5671C22.3517 20.3431 23.3793 20.0826 24.4122 19.8377C25.0085 19.697 25.1629 19.4938 25.2162 18.8894C25.2854 18.0402 25.3333 17.1857 25.4877 16.3521C25.6368 15.5601 25.3759 15.0495 24.6997 14.6379C22.964 13.5751 21.2443 12.4809 19.5086 11.418C18.1775 10.6053 16.8198 9.82895 15.4941 9.01095C15.0628 8.74523 14.6955 8.71397 14.2482 8.96406C13.8862 9.16726 13.4869 9.30272 13.0876 9.42776C12.1452 9.73516 11.1868 10.0165 10.2497 10.3031ZM11.1123 12.2308C12.3688 13.0019 13.4975 13.6949 14.6103 14.3774C13.5082 16.9929 11.8097 20.3222 11.3146 20.7599C11.2454 17.9308 11.1815 15.1798 11.1123 12.2308ZM22.9853 19.0197C19.7375 19.8325 16.559 20.6765 13.3218 21.2444C13.2952 21.1767 13.2686 21.1142 13.242 21.0517C15.4888 19.8064 17.7356 18.5612 19.9345 17.342C20.9994 17.9308 21.9897 18.4726 22.9853 19.0197ZM13.045 20.1138C12.997 20.0722 12.9491 20.0305 12.9012 19.994C13.7957 18.3163 14.4186 16.5084 15.3823 14.8672C16.5643 15.3465 18.481 16.4771 18.875 16.9044C16.9263 17.9777 14.9883 19.0457 13.045 20.1138ZM15.1374 9.76642C16.5536 10.6574 17.89 11.3555 19.253 12.408C17.8794 12.705 16.724 12.9603 15.4462 13.2364C15.345 12.0902 15.2492 11.0169 15.1374 9.76642ZM20.8077 16.6074C21.6063 16.4146 22.2026 16.2479 22.8043 16.128C23.4166 16.0082 23.9437 15.5549 24.6731 15.68C24.4122 16.6022 24.6465 17.5556 24.1833 18.4622C23.0705 17.8578 22.011 17.2691 20.8077 16.6074ZM20.3445 15.6696C20.1901 14.888 20.0304 14.169 19.9132 13.4448C19.8547 13.0749 20.1049 12.8769 20.3871 13.0488C21.388 13.6636 22.3783 14.3045 23.4592 14.987C22.4529 15.4924 21.4998 15.7008 20.3445 15.6696ZM11.2507 10.8501C12.257 10.5532 13.0503 10.3187 13.8489 10.0842C14.1258 10.0061 14.2749 10.1416 14.3441 10.3864C14.5624 11.1992 14.6369 12.012 14.4452 12.9082C13.3325 12.335 12.3368 11.7202 11.2507 10.8501ZM18.8218 13.5959C18.9762 14.3305 19.1146 14.987 19.2903 15.8415C18.4118 15.0912 17.4055 14.8307 16.5536 14.0388C17.4108 13.872 18.0817 13.7418 18.8218 13.5959Z" fill="white"/>
</svg>
