<svg width="23" height="25" viewBox="0 0 23 25" fill="none" xmlns="http://www.w3.org/2000/svg">
<g clip-path="url(#clip0_8523_59389)">
<path d="M16.7787 16.1683C19.5963 14.6072 21.7325 13.4176 21.9166 13.3252C22.5056 13.0091 23.1138 12.1726 21.9166 11.5228C21.53 11.3185 19.4489 10.166 16.7787 8.67969L13.0771 12.4517L16.7787 16.1683Z" fill="#FFD900"/>
<path d="M13.0772 12.4531L1.29102 24.4394C1.56765 24.4763 1.88001 24.4024 2.24824 24.1981C3.02134 23.7711 11.2168 19.255 16.7788 16.1706L13.0772 12.4531Z" fill="#F43249"/>
<path d="M13.077 12.4513L16.7786 8.69771C16.7786 8.69771 3.07699 1.15271 2.248 0.707197C1.93565 0.520489 1.58573 0.465032 1.27246 0.520489L13.077 12.4513Z" fill="#00EE76"/>
<path d="M13.0771 12.4503L1.27261 0.519531C0.793545 0.631371 0.388672 1.05839 0.388672 1.93185V23.0242C0.388672 23.8237 0.701945 24.3996 1.29093 24.455L13.0771 12.4503Z" fill="#00D3FF"/>
</g>
<defs>
<clipPath id="clip0_8523_59389">
<rect width="22.2222" height="24" fill="white" transform="translate(0.388672 0.5)"/>
</clipPath>
</defs>
</svg>
