<svg width="24" height="24" viewBox="0 0 24 24" fill="none" xmlns="http://www.w3.org/2000/svg">
<g clip-path="url(#clip0_8523_60148)">
<rect width="24" height="24" rx="2" fill="white"/>
<path d="M12.0002 14.1109C13.1627 14.1109 14.1143 13.1641 14.1143 11.9969C14.1143 11.5375 13.9643 11.1109 13.7158 10.7641C13.3315 10.2344 12.708 9.88281 12.0049 9.88281C11.3018 9.88281 10.6783 10.2297 10.294 10.7641C10.0455 11.1109 9.89553 11.5375 9.89553 11.9969C9.89084 13.1641 10.8377 14.1109 12.0002 14.1109Z" fill="#07303C"/>
<path d="M16.6125 9.41719V7.64531V7.38281H16.35L14.5781 7.3875L14.5875 9.42188L16.6125 9.41719Z" fill="#07303C"/>
<path opacity="0.9" d="M22.125 0H1.875C0.839062 0 0 0.839062 0 1.875V22.125C0 23.1609 0.839062 24 1.875 24H22.125C23.1609 24 24 23.1609 24 22.125V1.875C24 0.839062 23.1609 0 22.125 0ZM18 10.7672V15.6797C18 16.9594 16.9594 18 15.6797 18H8.32031C7.04063 18 6 16.9594 6 15.6797V10.7672V8.31562C6 7.03594 7.04063 5.99531 8.32031 5.99531H15.6797C16.9594 5.99531 18 7.03594 18 8.31562V10.7672Z" fill="#07303C"/>
<path d="M15.2812 11.9984C15.2812 13.8078 13.8094 15.2797 12 15.2797C10.1906 15.2797 8.71875 13.8078 8.71875 11.9984C8.71875 11.5625 8.80781 11.1453 8.9625 10.7656H7.17188V15.6781C7.17188 16.3109 7.6875 16.8266 8.32031 16.8266H15.6797C16.3125 16.8266 16.8281 16.3109 16.8281 15.6781V10.7656H15.0375C15.1969 11.1453 15.2812 11.5625 15.2812 11.9984Z" fill="#07303C"/>
</g>
<defs>
<clipPath id="clip0_8523_60148">
<rect width="24" height="24" rx="2" fill="white"/>
</clipPath>
</defs>
</svg>
