<svg width="16" height="15" viewBox="0 0 16 15" fill="none" xmlns="http://www.w3.org/2000/svg">
<path d="M7.43876 0.741544C7.67825 0.00449498 8.72097 0.00449458 8.96045 0.741543L10.1753 4.48055C10.2824 4.81017 10.5896 5.03334 10.9362 5.03334H14.8676C15.6426 5.03334 15.9648 6.02503 15.3378 6.48055L12.1572 8.79139C11.8769 8.9951 11.7595 9.3562 11.8666 9.68582L13.0815 13.4248C13.321 14.1619 12.4774 14.7748 11.8504 14.3193L8.66984 12.0084C8.38945 11.8047 8.00977 11.8047 7.72938 12.0084L4.54879 14.3193C3.92182 14.7748 3.07823 14.1619 3.31772 13.4248L4.53259 9.68582C4.63969 9.3562 4.52237 8.9951 4.24198 8.79139L1.06139 6.48055C0.434415 6.02503 0.756635 5.03334 1.53161 5.03334H5.46304C5.80962 5.03334 6.11679 4.81017 6.22389 4.48055L7.43876 0.741544Z" fill="#FFD700"/>
</svg>
