<svg width="79" height="56" viewBox="0 0 79 56" fill="none" xmlns="http://www.w3.org/2000/svg">
<g filter="url(#filter0_d_8523_59407)">
<path d="M38.2945 38.9006L38.3162 38.3303L37.7842 38.5368C37.7244 38.5599 37.6663 38.5792 37.6086 38.5965L37.6929 38.8777L37.5451 38.8721L37.545 38.8735C37.5434 38.9173 37.5417 38.9611 37.54 39.005C37.4537 39.0284 37.375 39.0499 37.304 39.0772L37.1695 38.7272C37.0876 38.7586 37 38.8008 36.9158 38.8633C36.7044 38.9701 36.4933 39.0772 36.2825 39.1849L36.453 39.5189C36.0105 39.7448 35.5693 39.9727 35.1295 40.2028L34.9557 39.8705C34.5143 40.1014 34.0743 40.3344 33.6358 40.5698L33.8131 40.9002C33.3754 41.1352 32.9391 41.3725 32.5045 41.6122L32.3234 41.2839C31.8871 41.5245 31.4524 41.7677 31.0193 42.0136L31.2045 42.3397C30.7725 42.5849 30.3422 42.8328 29.9137 43.0836L29.7243 42.7599C29.2942 43.0116 28.8658 43.2662 28.4393 43.5238L28.6331 43.8448C28.208 44.1015 27.7848 44.3613 27.3635 44.6242L27.165 44.306C26.7421 44.57 26.3212 44.8371 25.9024 45.1075L26.1058 45.4226C25.6887 45.6919 25.2737 45.9646 24.8608 46.2408L24.6523 45.9291C24.238 46.2063 23.8258 46.487 23.4159 46.7714L23.6297 47.0795C23.2218 47.3624 22.8163 47.649 22.4132 47.9394L22.194 47.6351C21.7895 47.9265 21.3873 48.2217 20.9876 48.5209L21.2124 48.8211C20.8152 49.1185 20.4204 49.4198 20.0282 49.7252L19.7978 49.4293C19.4046 49.7356 19.0138 50.046 18.6257 50.3607L18.8619 50.6519C18.4768 50.9643 18.0942 51.2808 17.7144 51.6018L17.4723 51.3154C17.0917 51.637 16.7138 51.9631 16.3386 52.2938L16.5866 52.5751C16.2147 52.9028 15.8457 53.2351 15.4794 53.572L15.2255 53.296C15.042 53.4649 14.8592 53.6349 14.677 53.8062L14.6768 53.8064C14.4896 53.9826 14.3043 54.1603 14.1207 54.3395L14.3826 54.6079C14.0175 54.9641 13.6594 55.3259 13.3078 55.6929L13.037 55.4335C12.6815 55.8045 12.3327 56.1807 11.99 56.5613L12.2687 56.8122C11.9277 57.191 11.5927 57.5743 11.2632 57.9619L10.9775 57.719C10.6454 58.1097 10.3188 58.5044 9.99727 58.9027L10.2891 59.1382C9.96913 59.5345 9.65412 59.9345 9.34347 60.3376L9.04643 60.1087C8.73397 60.5142 8.426 60.9228 8.12199 61.3338L8.42349 61.5568C8.12066 61.9663 7.82165 62.3784 7.52593 62.7926L7.22072 62.5747C7.07278 62.7819 6.92568 62.9896 6.77936 63.1978C6.62578 63.409 6.46542 63.6222 6.30043 63.8361L6.59733 64.0652C6.26927 64.4904 5.92473 64.916 5.58109 65.3314L5.29213 65.0924C5.12089 65.2994 4.94973 65.5041 4.78068 65.7052C4.72258 65.7666 4.65882 65.8294 4.59114 65.8908L4.8432 66.1685C4.69384 66.3041 4.52716 66.4338 4.35688 66.5358L4.16428 66.214C4.09966 66.2527 4.03779 66.2846 3.97966 66.3092C3.96287 66.3109 3.93739 66.312 3.9037 66.3101L3.88197 66.6845C3.75229 66.6769 3.60693 66.644 3.49022 66.5863L3.65627 66.2501C3.64133 66.2427 3.63069 66.2362 3.62368 66.2312C3.6229 66.228 3.62205 66.224 3.62123 66.2191L3.25136 66.2809C3.23037 66.1552 3.24811 66.0071 3.28652 65.8801L3.64546 65.9887C3.65884 65.9445 3.67347 65.9132 3.68339 65.8963C3.81879 65.6929 3.9548 65.4901 4.09143 65.2878L3.78068 65.0779C4.05803 64.6673 4.33796 64.2591 4.6206 63.8532L4.92833 64.0675C5.21041 63.6625 5.49517 63.2599 5.78272 62.86L5.47824 62.6411C5.76747 62.2388 6.05954 61.839 6.35456 61.4421L6.65554 61.6657C6.94983 61.2697 7.24704 60.8765 7.54727 60.4861L7.25002 60.2575C7.55205 59.8648 7.85716 59.475 8.16546 59.0882L8.45871 59.322C8.76609 58.9363 9.07663 58.5538 9.39044 58.1744L9.10149 57.9353C9.41717 57.5537 9.73617 57.1752 10.0586 56.8001L10.343 57.0445C10.6643 56.6707 10.9889 56.3003 11.3171 55.9333L11.0376 55.6834C11.3677 55.3143 11.7013 54.9486 12.0387 54.5866L12.313 54.8422C12.6488 54.4819 12.9881 54.1252 13.3313 53.7723L13.0624 53.5109C13.4075 53.156 13.7563 52.8048 14.1091 52.4576L14.3722 52.7248C14.7229 52.3796 15.0775 52.0382 15.436 51.7009L15.1791 51.4278C15.5394 51.0888 15.9038 50.7538 16.2723 50.4229L16.5228 50.702C16.8887 50.3735 17.2587 50.0492 17.6329 49.7292L17.3891 49.4442C17.7649 49.1228 18.145 48.8056 18.5294 48.4929L18.766 48.7837C19.1471 48.4737 19.5324 48.1681 19.9221 47.8669L19.6928 47.5702C20.0839 47.268 20.4794 46.9703 20.8794 46.6772L21.1011 46.9797C21.4969 46.6896 21.8972 46.4042 22.3021 46.1235L22.0884 45.8153C22.4942 45.5339 22.9047 45.2571 23.3198 44.9852L23.5253 45.2989C23.7306 45.1644 23.937 45.0311 24.1447 44.899C24.362 44.7619 24.5794 44.625 24.7968 44.4884L24.5974 44.1709C25.0336 43.8968 25.4703 43.624 25.9075 43.3527L26.1052 43.6713C26.5423 43.4001 26.9798 43.1305 27.4182 42.8627L27.2227 42.5427C27.6623 42.2742 28.1027 42.0075 28.5442 41.743L28.7369 42.0647C29.1777 41.8006 29.6195 41.5387 30.0625 41.2794L29.8731 40.9558C30.3175 40.6956 30.7633 40.438 31.2106 40.1832L31.3962 40.509C31.8422 40.2549 32.2897 40.0037 32.7389 39.7557L32.5577 39.4274C33.0083 39.1786 33.4608 38.9329 33.9153 38.6907L34.0916 39.0217C34.5441 38.7806 34.9985 38.543 35.4552 38.3092L35.2843 37.9754C35.7423 37.7409 36.2025 37.5102 36.6653 37.2837L36.8302 37.6205C37.0591 37.5084 37.2887 37.3973 37.5189 37.2873C37.6448 37.2302 37.7831 37.1632 37.9232 37.0877L37.7455 36.7575C38.0011 36.6199 38.2601 36.4543 38.4504 36.2716L38.7101 36.5421C38.8449 36.4127 38.973 36.2556 39.0492 36.0712C39.14 35.8517 39.2333 35.634 39.3291 35.4182L38.9864 35.2661C39.1821 34.8252 39.3882 34.3919 39.6039 33.9659L39.9384 34.1354C40.1532 33.7111 40.3779 33.294 40.6117 32.8839L40.2859 32.6982C40.5243 32.2801 40.772 31.8692 41.0286 31.4652L41.3452 31.6662C41.5998 31.2652 41.8632 30.8709 42.1349 30.4831L41.8277 30.2679C42.1034 29.8744 42.3873 29.4875 42.6789 29.107L42.9766 29.335C43.2654 28.9581 43.562 28.5872 43.8657 28.2221L43.5774 27.9823C43.8843 27.6134 44.1982 27.2504 44.5186 26.8931L44.7978 27.1435C45.1151 26.7896 45.4389 26.4413 45.7686 26.098L45.4982 25.8382C45.8305 25.4923 46.1686 25.1517 46.5118 24.8161L46.774 25.0842C47.1143 24.7515 47.4598 24.4235 47.81 24.1001L47.5556 23.8246C47.908 23.4991 48.2649 23.1783 48.6258 22.8617L48.8731 23.1436C49.0523 22.9864 49.2325 22.8302 49.4136 22.675L49.415 22.6738C49.601 22.5129 49.7871 22.3523 49.9735 22.1919L49.7288 21.9077C50.102 21.5864 50.4759 21.2661 50.8505 20.9466L51.0938 21.2319C51.4681 20.9128 51.8431 20.5945 52.2186 20.2769L51.9765 19.9906C52.3525 19.6726 52.7292 19.3555 53.1063 19.0391L53.3473 19.3264C53.7242 19.0102 54.1017 18.6947 54.4797 18.3799L54.2397 18.0918C54.618 17.7766 54.9968 17.4621 55.3761 17.1482L55.6152 17.437C55.9942 17.1233 56.3737 16.8101 56.7536 16.4973L56.5152 16.2078C56.8954 15.8949 57.2759 15.5824 57.6567 15.2703L57.8944 15.5604C58.275 15.2484 58.656 14.9369 59.0372 14.6257L58.8001 14.3352C59.1815 14.0238 59.5632 13.7128 59.9451 13.402L60.1818 13.6928C60.5635 13.3821 60.9455 13.0717 61.3277 12.7614L61.0913 12.4703C61.4735 12.1599 61.8558 11.8497 62.2383 11.5396L62.4745 11.8308L63.6219 10.9008L63.3858 10.6094C63.4796 10.5334 63.5734 10.4574 63.6672 10.3814C63.9559 10.1474 64.2446 9.91342 64.5334 9.67939L64.7695 9.97072C65.152 9.66068 65.5345 9.35054 65.9169 9.04024L65.6806 8.74903C66.0629 8.43883 66.4452 8.12847 66.8273 7.81787L67.0638 8.10886C67.446 7.79824 67.828 7.48736 68.2098 7.17614L67.9729 6.88546C68.3545 6.57443 68.736 6.26308 69.1172 5.95133L69.3546 6.24162C69.5452 6.0857 69.7358 5.92968 69.9263 5.77354L69.9334 5.76774L69.9402 5.76161C69.9855 5.72059 70.0324 5.67912 70.0816 5.63567C70.0886 5.62946 70.0957 5.62321 70.1028 5.61692L70.1116 5.60916C70.1713 5.55648 70.2342 5.50095 70.2978 5.44317L70.0458 5.16545C70.2659 4.96579 70.4923 4.74194 70.6904 4.46135L70.9967 4.67766C71.0953 4.53805 71.1881 4.38526 71.2712 4.21639L71.5703 3.60899L70.8967 3.67768C70.6515 3.70268 70.4063 3.72787 70.1611 3.75322L70.1997 4.12623C69.7097 4.17691 69.2198 4.22827 68.7299 4.28018L68.6904 3.90727C68.2003 3.95921 67.7102 4.01171 67.2201 4.06466L67.2604 4.4375C66.7708 4.49041 66.2811 4.54377 65.7913 4.59749L65.7504 4.22472C65.2607 4.27842 64.771 4.33245 64.281 4.38673L64.3223 4.75945C63.833 4.81366 63.3434 4.86811 62.8535 4.92269L62.812 4.55L61.3432 4.71383L61.3848 5.08652C60.8956 5.14111 60.406 5.19571 59.916 5.25025L59.8745 4.87755C59.3855 4.93196 58.896 4.9863 58.406 5.04045L58.4471 5.41318C57.9581 5.46723 57.4684 5.52109 56.9781 5.57466L56.9374 5.20187C56.4485 5.2553 55.959 5.30843 55.4687 5.36117L55.5088 5.73402C55.0198 5.78663 54.53 5.83886 54.0394 5.8906L54 5.51767C53.894 5.52885 53.7879 5.54001 53.6818 5.55115C53.6844 5.52609 53.6876 5.50184 53.6911 5.47837L53.3204 5.42199C53.3849 4.9975 53.5766 4.71179 53.8467 4.495L54.0814 4.78744C54.1886 4.70142 54.318 4.62391 54.4716 4.54849C54.593 4.4934 54.7169 4.43601 54.8402 4.37886C54.8571 4.37104 54.8739 4.36323 54.8908 4.35543C54.8908 4.35541 54.8908 4.3554 54.8909 4.35539C54.9413 4.332 54.9917 4.30871 55.0416 4.28571L54.8848 3.94509C55.2625 3.77116 55.6505 3.59854 56.0498 3.46044L56.1724 3.81484C56.36 3.74995 56.5478 3.69397 56.7362 3.65003C56.7376 3.64971 56.739 3.64939 56.7403 3.64907L57.4176 3.50802L57.3412 3.14091C57.7982 3.04567 58.2554 2.95047 58.7125 2.85543L58.7888 3.22259C59.2459 3.12756 59.7029 3.03271 60.16 2.93811L60.084 2.5709C60.5413 2.47628 60.9985 2.38192 61.4559 2.28792L61.5314 2.65524C61.9886 2.56129 62.4458 2.4677 62.903 2.37458L62.8282 2.00713C63.2857 1.91396 63.7434 1.82126 64.2011 1.72914L64.2751 2.09676C64.7325 2.0047 65.19 1.91322 65.6477 1.8224L65.5747 1.45458C66.0326 1.36371 66.4908 1.2735 66.9491 1.18407L67.0209 1.55213C67.4787 1.46279 67.9367 1.37424 68.3948 1.28656L68.3243 0.918252C68.7829 0.830503 69.2417 0.743622 69.7007 0.657732L69.7696 1.02633C69.9982 0.983565 70.2269 0.941027 70.4556 0.898748C70.6916 0.856896 70.9316 0.827136 71.1746 0.807527L71.1445 0.433746C71.649 0.393051 72.16 0.394792 72.6666 0.421256L72.647 0.795748C72.8935 0.808623 73.1397 0.827546 73.3847 0.850459C73.5759 0.875265 73.7521 0.912223 73.9134 0.959661L74.0192 0.59991C74.4498 0.726578 74.8018 0.924279 75.0694 1.17942L74.8106 1.45084C75.0513 1.68026 75.2072 1.96528 75.2733 2.29792L75.6411 2.22481C75.7132 2.58751 75.6961 2.99174 75.5841 3.42425L75.2211 3.33028C75.1783 3.49571 75.1194 3.66807 75.0431 3.84642C74.9458 4.06384 74.8485 4.28086 74.751 4.49751L75.0929 4.6514C74.8962 5.08859 74.699 5.5243 74.5012 5.95877L74.1599 5.8034C73.9616 6.23896 73.7627 6.67327 73.5631 7.10658L73.9037 7.2635C73.7033 7.69839 73.5021 8.13229 73.3001 8.56544L72.9602 8.40691C72.7582 8.84003 72.5552 9.2724 72.3512 9.70426L72.6902 9.86446C72.4859 10.2969 72.2806 10.7288 72.074 11.1604L71.7357 10.9985C71.5296 11.4291 71.3223 11.8593 71.1137 12.2896L71.4511 12.4532C71.2426 12.883 71.0328 13.3128 70.8215 13.7428L70.4849 13.5774C70.3797 13.7915 70.274 14.0057 70.168 14.22L70.1678 14.2199L70.1624 14.2318C70.077 14.4208 69.9842 14.5776 69.8877 14.7052L70.1868 14.9314C69.8874 15.3274 69.5257 15.5325 69.1355 15.5549L69.114 15.1805C68.9795 15.1882 68.8313 15.1652 68.6705 15.1034C68.5338 15.0337 68.4233 14.94 68.3395 14.8261L68.0375 15.0484C67.816 14.7473 67.7191 14.3374 67.7898 13.8455L68.161 13.8989C68.1841 13.738 68.2293 13.5615 68.3011 13.3705C68.3922 13.1336 68.4855 12.8979 68.5807 12.6624L68.2331 12.5218C68.4244 12.0485 68.6231 11.5775 68.8267 11.1028L69.1714 11.2506C69.3105 10.9261 69.4519 10.6003 69.5951 10.27C69.6569 10.1276 69.7191 9.98432 69.7816 9.83997L69.4374 9.691C69.6371 9.22969 69.8392 8.75986 70.0418 8.27643L70.3876 8.42135C70.4859 8.1867 70.5844 7.94871 70.6829 7.70682L71.0635 6.77149L70.1646 7.23169C70.098 7.2658 70.037 7.29522 69.9804 7.32155L70.0374 7.44416L69.9882 7.42414C69.937 7.54987 69.8858 7.67461 69.8346 7.79844C69.8014 7.81384 69.7701 7.829 69.7403 7.84462L69.5664 7.51239C69.4831 7.556 69.4001 7.60707 69.3177 7.6753L69.3176 7.67517L69.3093 7.68248L68.7545 8.17024L69.002 8.45194C68.632 8.77706 68.2618 9.10208 67.8915 9.42703L67.6441 9.14516C67.2739 9.46998 66.9036 9.79475 66.5332 10.1195L66.7804 10.4015C66.41 10.7262 66.0395 11.0509 65.6689 11.3756L65.4218 11.0935L64.3102 12.0674L64.5573 12.3495C64.1868 12.674 63.8163 12.9987 63.4458 13.3234L63.1986 13.0414C62.8281 13.3661 62.4577 13.6909 62.0872 14.0158L62.3345 14.2977C61.9642 14.6225 61.5939 14.9475 61.2237 15.2726L60.9763 14.9908C60.6061 15.3159 60.236 15.6411 59.866 15.9666L60.1137 16.2482C59.7438 16.5735 59.3741 16.8991 59.0045 17.2249L58.7565 16.9436C58.3869 17.2694 58.0174 17.5954 57.6481 17.9218L57.8965 18.2028C57.5274 18.529 57.1584 18.8554 56.7898 19.1822L56.541 18.9016C56.1722 19.2285 55.8037 19.5556 55.4354 19.8832L55.6846 20.1634C55.3165 20.4908 54.9487 20.8185 54.5812 21.1466L54.3314 20.8668C53.9638 21.195 53.5964 21.5237 53.2294 21.8527L53.4797 22.1319C53.1129 22.4607 52.7465 22.79 52.3804 23.1197L52.1295 22.8411C51.7632 23.1709 51.3974 23.5013 51.0319 23.8322L51.2836 24.1102C50.9184 24.4408 50.5536 24.7719 50.1893 25.1035L49.9369 24.8262C49.7552 24.9916 49.5737 25.1571 49.3922 25.3227C49.2223 25.474 49.055 25.6285 48.89 25.7858L49.1487 26.0573C48.8254 26.3653 48.5104 26.6849 48.2019 27.0129L47.9288 26.756C47.6185 27.0858 47.3153 27.4233 47.0176 27.7652L47.3004 28.0114C47.0062 28.3493 46.7166 28.6923 46.43 29.0373L46.1415 28.7977C45.8534 29.1447 45.5684 29.4934 45.2856 29.84L45.5762 30.0771C45.5469 30.113 45.5176 30.1489 45.4883 30.1848C45.233 30.4978 44.9786 30.8096 44.7238 31.1181L44.4347 30.8793C44.292 31.0521 44.1493 31.2237 44.0064 31.3936C43.8076 31.6301 43.6282 31.8815 43.4587 32.1429L43.7734 32.3469C43.5467 32.6965 43.3328 33.0736 43.1067 33.4722C43.033 33.6022 42.958 33.7344 42.8808 33.8687L42.5556 33.6819C42.4154 33.926 42.2691 34.1749 42.1111 34.4285L41.68 35.1205L42.486 34.9975C42.6314 34.9753 42.7694 34.9524 42.9007 34.9292L42.8522 34.6553C42.8747 34.6184 42.897 34.5816 42.919 34.5449C43.1881 34.4959 43.4272 34.4459 43.6419 34.3982L43.7232 34.7642C43.8693 34.7318 44.004 34.7005 44.1276 34.6718L44.139 34.6692L44.1503 34.6658C44.4206 34.5849 44.6918 34.5065 44.9638 34.4308L44.8631 34.0695C45.411 33.9169 45.9625 33.7746 46.517 33.6442L46.6029 34.0093C47.1516 33.8803 47.7031 33.763 48.257 33.6587L48.1876 33.2902C48.7469 33.185 49.3088 33.0929 49.873 33.0153L49.9241 33.3868C50.4814 33.3101 51.0406 33.2478 51.6013 33.2011L51.5702 32.8274C52.1369 32.7802 52.7054 32.7488 53.2753 32.7346L53.2846 33.1094C53.5645 33.1024 53.8445 33.0996 54.1248 33.1012C54.3721 33.1053 54.6179 33.1134 54.8622 33.1256L54.8809 32.7511C55.3858 32.7764 55.8853 32.8191 56.3791 32.8817L56.332 33.2537C56.8217 33.3158 57.3049 33.3976 57.7817 33.5014L57.8615 33.135C58.3515 33.2418 58.8356 33.3714 59.3134 33.5263L59.1977 33.883C59.6596 34.0328 60.1152 34.2068 60.5644 34.4072L60.7172 34.0647C61.1694 34.2665 61.6154 34.4944 62.0551 34.7507L61.8662 35.0747C62.0727 35.195 62.2778 35.3219 62.4815 35.4554L62.5318 35.492C62.7301 35.6361 62.9294 35.781 63.1288 35.9294L63.3527 35.6286C63.7843 35.95 64.2162 36.2882 64.618 36.657L64.3645 36.9333C64.558 37.1109 64.7428 37.2945 64.9158 37.4857L64.9185 37.4887C65.1032 37.6885 65.2765 37.8926 65.4384 38.1002L65.7341 37.8697C66.0855 38.3204 66.3862 38.7887 66.6364 39.2699L66.3036 39.4429C66.5539 39.9241 66.7508 40.418 66.8949 40.9191L67.2553 40.8155C67.4104 41.3549 67.5074 41.9032 67.5465 42.4547L67.1724 42.4811C67.2097 43.0082 67.1914 43.5385 67.1174 44.0663L67.4887 44.1184C67.4126 44.662 67.2802 45.2028 67.0916 45.7352L66.7381 45.6101C66.5644 46.1006 66.3405 46.5847 66.066 47.0574L66.3903 47.2457C66.1186 47.7137 65.7999 48.17 65.4343 48.6103L65.1458 48.3707C64.9769 48.574 64.7975 48.774 64.6075 48.9703L64.6075 48.9702L64.6031 48.9749C64.4494 49.1392 64.2889 49.3017 64.1219 49.4621L64.3817 49.7325C64.0504 50.0509 63.6951 50.3605 63.3181 50.659L63.0853 50.365C62.7319 50.6448 62.3586 50.915 61.9677 51.1732L62.1743 51.4861C61.7875 51.7416 61.3841 51.9856 60.966 52.216L60.785 51.8875C60.3862 52.1073 59.9737 52.3146 59.5492 52.5076L59.7045 52.849C59.2802 53.0419 58.8443 53.2208 58.3986 53.384L58.2697 53.0319C57.84 53.1893 57.401 53.3317 56.9543 53.4577L57.0561 53.8186C56.606 53.9456 56.1481 54.0562 55.6841 54.1489L55.6107 53.7812C55.1612 53.871 54.706 53.9436 54.2466 53.9976L54.2904 54.3701C53.8253 54.4247 53.3558 54.4608 52.8834 54.4767L52.8707 54.1019C52.4134 54.1173 51.9534 54.1135 51.4923 54.089L51.4725 54.4635C51.0054 54.4388 50.5369 54.3933 50.0684 54.3259L50.1218 53.9547C49.6708 53.8897 49.2199 53.8039 48.7704 53.6959L48.6828 54.0605C48.2296 53.9516 47.7777 53.8207 47.3283 53.6665L47.45 53.3118C47.0212 53.1647 46.5948 52.9959 46.1719 52.8043L46.0171 53.1458C45.5944 52.9542 45.1751 52.7403 44.7604 52.5031L44.9466 52.1776C44.7488 52.0645 44.552 51.9458 44.3564 51.8216L44.3537 51.8199C44.162 51.7005 43.9753 51.5784 43.7935 51.4535L43.5812 51.7626C43.1969 51.4987 42.8333 51.2225 42.49 50.9344L42.731 50.6471C42.3851 50.3568 42.0607 50.0544 41.7574 49.7403L41.4876 50.0008C41.1667 49.6683 40.8682 49.3228 40.5919 48.9645L40.8889 48.7355C40.617 48.3829 40.3672 48.0177 40.1391 47.6401L39.8181 47.834C39.582 47.4432 39.3683 47.0396 39.1767 46.6237L39.5173 46.4668C39.333 46.0667 39.1695 45.6545 39.0265 45.2304L38.6711 45.3502C38.5267 44.922 38.4027 44.4825 38.2988 44.032L38.6642 43.9477C38.5654 43.52 38.4851 43.0817 38.4228 42.633L38.0514 42.6845C37.9896 42.2393 37.9453 41.7846 37.9181 41.3208L38.2924 41.2989C38.2794 41.0772 38.2704 40.8532 38.2654 40.627L38.2653 40.6239C38.2611 40.4871 38.2595 40.3451 38.2598 40.199L37.8848 40.1981C37.8855 39.9155 37.8934 39.6214 37.9037 39.3235L38.2785 39.3364C38.2834 39.1921 38.289 39.0468 38.2945 38.9006ZM61.8958 36.6875L61.8687 36.6637L61.8377 36.6454C61.6438 36.5316 61.45 36.4227 61.2561 36.3185L61.0787 36.6489C60.6873 36.4386 60.2964 36.2486 59.9051 36.0781L60.0549 35.7344C59.6394 35.5533 59.2233 35.3935 58.8058 35.2543L58.6872 35.61C58.2699 35.4708 57.8515 35.3528 57.4314 35.2551L57.5164 34.8898C57.0791 34.7881 56.64 34.7078 56.1984 34.6479L56.148 35.0195C55.7176 34.9612 55.2846 34.9228 54.8483 34.9034L54.8649 34.5288C54.6449 34.519 54.4242 34.514 54.2027 34.5135C53.9501 34.5045 53.698 34.4996 53.4465 34.4985L53.4448 34.8735C52.9422 34.8713 52.4417 34.8848 51.9434 34.9125L51.9225 34.5381C51.4143 34.5664 50.9084 34.6093 50.4051 34.6655L50.4466 35.0382C49.9485 35.0937 49.4525 35.1624 48.9586 35.2428L48.8984 34.8727C48.3981 34.9541 47.9004 35.0474 47.4052 35.1511L47.482 35.5182C46.992 35.6208 46.5041 35.7338 46.0184 35.8557L45.927 35.492C45.437 35.615 44.9495 35.747 44.4644 35.8866L44.5681 36.247C44.0869 36.3854 43.6078 36.5314 43.1308 36.6836L43.0168 36.3263C42.7787 36.4023 42.5412 36.4798 42.3042 36.5586C42.0756 36.6266 41.8715 36.7162 41.6895 36.8284L41.8863 37.1476C41.5444 37.3585 41.3179 37.6528 41.1487 38.0201L40.8081 37.8632C40.7218 38.0503 40.651 38.2495 40.5891 38.4566L40.5869 38.4637L40.5851 38.4709C40.5124 38.754 40.4531 39.0398 40.4067 39.3275L40.777 39.3871C40.6878 39.9402 40.6484 40.501 40.6555 41.0625L40.2805 41.0672C40.2879 41.647 40.3431 42.2268 40.4429 42.7995L40.8123 42.7352C40.9083 43.2865 41.047 43.8316 41.2255 44.3638L40.87 44.483C41.0541 45.0322 41.2792 45.568 41.542 46.0834L41.8761 45.913C42.1314 46.4136 42.4235 46.8944 42.7494 47.3485L42.4447 47.5671C42.7841 48.04 43.1593 48.4856 43.5673 48.8963L43.8334 48.632C44.2298 49.0312 44.6579 49.3958 45.1143 49.7187L44.8977 50.0248C45.1359 50.1933 45.3817 50.351 45.6347 50.497L45.6359 50.4977C45.8682 50.6307 46.1057 50.7557 46.3476 50.873L46.5111 50.5355C46.9756 50.7606 47.4579 50.9564 47.9539 51.1231L47.8344 51.4786C48.3375 51.6477 48.8537 51.7878 49.3791 51.8993L49.457 51.5325C49.962 51.6397 50.4763 51.7199 50.9961 51.7737L50.9575 52.1468C51.4846 52.2013 52.0169 52.2293 52.5509 52.2312L52.5522 51.8562C53.0704 51.858 53.5904 51.8348 54.1088 51.7868L54.1434 52.1602C54.6723 52.1112 55.1995 52.0372 55.7216 51.9384L55.6519 51.5699C56.1633 51.4731 56.6695 51.3521 57.1672 51.2073L57.272 51.5674C57.7846 51.4182 58.2885 51.2443 58.7803 51.046L58.64 50.6982C59.1244 50.5028 59.5964 50.2833 60.0522 50.0401L60.2287 50.371C60.7022 50.1184 61.1593 49.8405 61.5961 49.5378L61.3824 49.2296C61.812 48.9319 62.2208 48.6098 62.6048 48.2638L62.8558 48.5424C63.0548 48.363 63.2476 48.1773 63.4336 47.9853C63.5979 47.819 63.7535 47.6501 63.9001 47.4787L63.6151 47.2349C63.9139 46.8857 64.1729 46.5273 64.3923 46.1623L64.7137 46.3555C64.9612 45.9437 65.1619 45.5222 65.3152 45.0939L64.9621 44.9676C65.1142 44.5426 65.2162 44.1124 65.2683 43.6805L65.6406 43.7255C65.6973 43.256 65.6988 42.7845 65.6455 42.3152L65.2729 42.3576C65.2237 41.9248 65.1248 41.4938 64.9765 41.0682L65.3306 40.9448C65.1807 40.5147 64.9839 40.0915 64.7411 39.6782L64.4177 39.8682C64.2015 39.5002 63.9462 39.1391 63.6519 38.7873L63.9396 38.5467C63.7943 38.3731 63.6403 38.202 63.4775 38.0336L63.4713 38.0272L63.4648 38.0211C63.3369 37.9009 63.2047 37.7827 63.073 37.6686L62.8274 37.9519C62.5848 37.7416 62.3404 37.5421 62.1248 37.3661C62.0961 37.3427 62.0679 37.3198 62.0403 37.2972L62.2776 37.0068C62.1242 36.8815 61.9947 36.7746 61.8958 36.6875Z" stroke="white" stroke-width="0.75" stroke-dasharray="1.5 1.5" shape-rendering="crispEdges"/>
</g>
<defs>
<filter id="filter0_d_8523_59407" x="0.242188" y="0.402344" width="78.4424" height="72.2837" filterUnits="userSpaceOnUse" color-interpolation-filters="sRGB">
<feFlood flood-opacity="0" result="BackgroundImageFix"/>
<feColorMatrix in="SourceAlpha" type="matrix" values="0 0 0 0 0 0 0 0 0 0 0 0 0 0 0 0 0 0 127 0" result="hardAlpha"/>
<feOffset dy="3"/>
<feGaussianBlur stdDeviation="1.5"/>
<feComposite in2="hardAlpha" operator="out"/>
<feColorMatrix type="matrix" values="0 0 0 0 0 0 0 0 0 0 0 0 0 0 0 0 0 0 0.25 0"/>
<feBlend mode="normal" in2="BackgroundImageFix" result="effect1_dropShadow_8523_59407"/>
<feBlend mode="normal" in="SourceGraphic" in2="effect1_dropShadow_8523_59407" result="shape"/>
</filter>
</defs>
</svg>
