<svg width="520" height="604" viewBox="0 0 520 604" fill="none" xmlns="http://www.w3.org/2000/svg">
<path d="M33.3233 423.993C33.0297 422.857 33.0297 422.005 32.7361 421.153C12.477 361.233 18.6428 302.733 43.8932 245.654C62.9778 202.772 91.4574 166.423 126.984 135.185C190.404 78.6725 264.98 43.1748 350.128 30.1117C412.373 20.4563 474.03 23.2962 534.513 42.0389C569.453 52.8302 601.456 68.4492 629.349 91.4516C657.829 114.738 678.381 143.136 689.832 177.782C691.3 181.758 693.062 185.733 694.823 189.709C710.385 225.491 715.082 262.692 710.091 301.029C703.338 352.145 682.198 397.298 649.021 437.34C646.378 440.748 643.442 444.155 641.093 447.847C590.299 523.386 519.539 572.231 429.402 592.962C323.703 617.1 223.875 601.765 131.388 545.821C92.3383 522.25 59.1608 492.148 35.085 453.527C-6.60751 386.791 -10.4244 317.5 19.8172 245.938C38.9019 200.5 68.2627 162.163 104.67 128.369C162.805 74.6967 231.802 38.6311 308.729 17.3325C351.008 5.68931 393.582 -0.274294 437.036 0.00968787C463.754 0.00968787 490.472 2.28154 516.31 10.517C530.109 14.7767 543.028 20.7403 553.892 29.8277C557.709 32.9515 560.938 36.6432 564.168 40.051C565.93 42.0389 567.398 44.5947 564.755 48.0025C563.581 47.4345 562.113 47.1506 561.232 46.2986C546.258 27.8399 525.412 19.0364 502.804 13.0728C476.966 6.54125 450.542 5.12135 423.823 6.54125C314.895 12.5049 217.709 48.8544 133.15 115.874C91.1641 149.384 57.6928 189.709 34.7914 237.702C17.4684 274.336 9.24733 312.388 12.477 352.429C14.2387 376.284 20.698 399.002 30.6809 420.585C30.9745 421.437 31.5617 422.289 32.1489 422.857C32.1489 423.425 32.7361 423.425 33.3233 423.993ZM698.053 308.412C694.53 312.956 693.943 318.068 695.117 323.179C694.53 324.031 693.355 324.599 693.062 325.451C691.887 329.143 691.3 333.119 690.419 337.094C690.713 337.094 691.007 337.094 691.3 337.378C692.475 332.551 693.649 328.007 695.117 323.179C695.998 318.352 696.879 313.24 698.053 308.412C698.053 305.572 698.347 303.017 698.64 300.461C698.053 300.461 697.76 300.461 697.172 300.461C697.466 303.301 697.76 305.856 698.053 308.412ZM428.815 46.8666C370.093 47.1506 317.537 58.2258 267.329 78.9565C218.884 98.8352 176.017 126.381 140.49 164.151C115.827 190.561 96.4491 220.095 84.7047 253.889C74.7221 282.571 71.1988 311.82 76.1901 341.922C81.4751 374.296 97.0363 401.842 120.525 425.413C162.511 467.442 209.194 503.791 260.576 534.461C285.826 549.228 311.959 562.008 340.145 570.243C346.604 571.947 352.77 573.367 359.523 572.799C398.573 569.675 436.448 561.44 473.149 547.809C532.752 525.658 585.014 492.716 628.174 446.711C631.991 442.735 635.221 438.192 638.157 433.648C649.901 414.337 659.297 394.175 666.931 373.16C685.134 322.895 693.355 271.496 687.483 218.391C685.722 201.068 680.73 185.165 671.041 170.398C651.957 140.864 627.587 116.442 597.639 96.8473C545.377 62.2016 487.243 46.8666 428.815 46.8666ZM287.588 57.9419C287.588 57.6579 287.294 57.0899 287.294 56.8059C284.945 57.3739 282.597 58.2258 280.248 58.7938C253.529 67.8812 228.279 79.2405 203.91 93.4395C150.767 124.677 106.432 164.435 73.8412 215.551C48.8846 254.741 33.9106 297.053 32.7361 343.342C31.2681 397.014 47.7101 444.439 85.292 484.481C104.67 504.927 127.865 520.83 153.115 533.609C201.854 558.316 253.823 570.243 308.435 573.083C314.307 573.367 319.886 573.083 325.758 573.083C324.584 571.663 323.116 571.095 321.648 570.527C309.61 565.983 297.278 562.008 285.826 556.896C214.479 523.954 154.29 476.813 100.853 420.869C92.045 411.781 85.5856 400.99 79.7134 389.631C60.9225 351.861 58.5736 312.388 67.9691 272.064C78.2454 227.479 100.853 189.141 132.269 155.631C171.906 112.75 220.645 82.9322 275.844 62.2016C279.954 60.7817 283.771 59.3618 287.588 57.9419ZM584.72 501.52C584.427 500.952 583.84 500.384 583.546 499.816C525.118 542.129 459.937 569.107 387.709 579.046C315.775 588.986 245.602 582.454 177.191 557.748C191.284 565.415 205.965 571.095 221.232 576.207C278.486 594.949 337.209 598.925 397.105 590.406C455.239 582.17 507.795 561.44 554.479 526.51C564.755 518.558 574.444 509.755 584.72 501.52ZM699.521 291.089C699.228 291.089 699.228 291.089 699.521 291.089C699.228 292.225 699.228 293.077 699.228 294.213H699.521C699.521 293.361 699.521 292.225 699.521 291.089Z" fill="#024355"/>
</svg>
